Coordinates
version=1
nRows=26
nColumns=24
inDegrees=yes

Units are S.I. units (second, meters, Newtons, ...)
Angles are in degrees.

endheader
time	pelvis_tilt	pelvis_list	pelvis_rotation	pelvis_tx	pelvis_ty	pelvis_tz	hip_flexion_r	hip_adduction_r	hip_rotation_r	knee_angle_r	ankle_angle_r	subtalar_angle_r	mtp_angle_r	hip_flexion_l	hip_adduction_l	hip_rotation_l	knee_angle_l	ankle_angle_l	subtalar_angle_l	mtp_angle_l	lumbar_extension	lumbar_bending	lumbar_rotation
      0.63000000	      0.14826527	      6.43138604	      5.88725130	     -0.81640034	      0.96774791	      0.31132034	     27.96807889	     -6.11410840	     -3.24738019	     -6.91565722	     13.04882785	     -5.43432244	      1.45733911	    -20.82314688	      8.85319489	      7.84681660	     -8.45327256	      7.36585922	     -4.72897260	      9.31321413	      1.72588442	     -4.48456299	     -3.76644532
      0.63416667	      0.08743727	      6.34549764	      5.94000141	     -0.81020617	      0.96701125	      0.31152689	     28.06402982	     -5.99045573	     -3.14431011	     -7.34590616	     13.04862794	     -5.65415155	      1.46615711	    -20.99858981	      8.68911160	      7.77429743	     -8.65112879	      7.09966178	     -4.63090912	      9.34018832	      1.85745227	     -4.37121451	     -3.73566878
      0.63833333	      0.04188757	      6.25550982	      5.99551014	     -0.80397907	      0.96629321	      0.31173336	     28.16139130	     -5.86871477	     -3.10652620	     -7.85160271	     12.94660209	     -5.81794327	      1.46890996	    -21.18226312	      8.51784065	      7.71274380	     -8.86892613	      6.89054554	     -4.54096398	      9.35984634	      1.96632093	     -4.27270974	     -3.75098626
      0.64250000	     -0.11718997	      6.14226192	      6.04795063	     -0.79772116	      0.96546436	      0.31203859	     28.33880626	     -5.69904220	     -2.82251955	     -8.31280894	     12.83946099	     -6.36684733	      1.51175036	    -21.16032933	      8.32520969	      7.45561825	     -9.23848343	      6.75177606	     -4.11734583	      9.55405681	      2.21733035	     -4.14797918	     -3.76409927
      0.64666667	     -0.19017865	      6.02528715	      6.09035075	     -0.79137080	      0.96476810	      0.31228091	     28.43985787	     -5.53659105	     -2.70647945	     -8.84206028	     12.70071248	     -6.58236096	      1.53369840	    -21.29173814	      8.12995559	      7.34255909	     -9.48278008	      6.40554610	     -3.97222200	      9.66010164	      2.38261970	     -4.00332446	     -3.79360553
      0.65083333	     -0.34210985	      5.90126887	      6.13393352	     -0.78505030	      0.96397263	      0.31260443	     28.62218737	     -5.35188250	     -2.45377449	     -9.38818366	     12.46869389	     -7.14553682	      1.60908764	    -21.26892015	      7.93136131	      7.13845370	     -9.86753326	      6.22855240	     -3.67813619	     10.02317516	      2.63176164	     -3.87677149	     -3.78129138
      0.65500000	     -0.46658237	      5.76603289	      6.14450013	     -0.77863440	      0.96323434	      0.31292687	     28.77923103	     -5.14597992	     -2.22959813	     -9.96395694	     12.21837455	     -7.56866670	      1.70891276	    -21.30281785	      7.73303055	      6.95338929	    -10.18188551	      5.91099682	     -3.50282144	     10.49420027	      2.86962515	     -3.71775236	     -3.78696883
      0.65916667	     -0.50383621	      5.64106173	      6.17807536	     -0.77220422	      0.96261869	      0.31319085	     28.87389936	     -4.97614035	     -2.20716374	    -10.63851816	     12.00422134	     -7.70440997	      1.71797726	    -21.44608159	      7.53059260	      6.88273330	    -10.47057292	      5.51777981	     -3.44294152	     10.54894688	      2.98282184	     -3.57546365	     -3.80618887
      0.66333333	     -0.74383615	      5.48074026	      6.17757738	     -0.76572857	      0.96179401	      0.31360701	     29.13428294	     -4.72565500	     -1.85211151	    -11.21005766	     11.65007284	     -8.33441883	      1.82342166	    -21.29137621	      7.31967659	      6.62133589	    -10.90028136	      5.19578243	     -3.17113201	     11.04056582	      3.36796087	     -3.40500318	     -3.73571681
      0.66750000	     -0.78348555	      5.28691222	      6.18397953	     -0.75917759	      0.96125430	      0.31397123	     29.17311528	     -4.45343487	     -1.70424990	    -11.79397022	     11.27592690	     -8.79192184	      2.89320456	    -21.39186405	      7.04148508	      6.40438230	    -11.22027992	      4.64377015	     -3.05807715	     16.02419062	      3.50998600	     -3.17495091	     -3.81751749
      0.67166667	     -0.97532014	      5.15486711	      6.15471771	     -0.75265565	      0.96051139	      0.31437043	     29.44469275	     -4.24079840	     -1.52059797	    -12.52248527	     10.98461814	     -9.06308748	      2.90963426	    -21.30045550	      6.87177751	      6.21569635	    -11.61806706	      4.19859589	     -2.93828186	     16.10266864	      3.83439955	     -3.03576557	     -3.70300202
      0.67583333	     -1.45880563	      4.98401537	      6.36263003	     -0.74597986	      0.95967288	      0.31481392	     29.91105452	     -4.08074095	     -1.41456333	    -13.11436488	     10.56079355	     -9.58709029	      2.91986425	    -20.80885888	      6.59423611	      6.19128964	    -12.18584001	      3.73468464	     -2.74589364	     16.22981532	      4.50869478	     -2.96120705	     -3.87172326
      0.68000000	     -1.57294385	      4.80961473	      6.30155197	     -0.73949826	      0.95910118	      0.31532020	     30.06674052	     -3.78947954	     -1.14460221	    -13.78087104	     10.18364623	    -10.12445676	      2.94629714	    -20.74501399	      6.37396617	      5.93405661	    -12.65248252	      3.23357297	     -2.57188491	     16.47006754	      4.74456841	     -2.75222280	     -3.80991956
      0.68416667	     -1.66041683	      4.63221067	      6.25919802	     -0.73293500	      0.95862242	      0.31577429	     30.20522075	     -3.52508107	     -1.04652632	    -14.49527570	      9.87328637	    -10.31646602	      2.95722914	    -20.72749404	      6.14493138	      5.76014518	    -13.07417337	      2.59039788	     -2.48785156	     16.59364137	      4.94901506	     -2.54245558	     -3.80000710
      0.68833333	     -1.82458339	      4.45337640	      6.19854326	     -0.72644033	      0.95805307	      0.31633042	     30.42887435	     -3.23540279	     -0.82169739	    -15.20811459	      9.47655182	    -10.84549156	      2.99565508	    -20.54702024	      5.92481160	      5.48450036	    -13.65023784	      2.09403746	     -2.33434636	     16.99530836	      5.22720270	     -2.35998764	     -3.69588130
      0.69250000	     -1.95820491	      4.25572877	      6.13134661	     -0.71988235	      0.95757652	      0.31689219	     30.61045962	     -2.92997483	     -0.65055230	    -15.91492813	      9.11662039	    -11.23731842	      3.05093178	    -20.39876234	      5.68130904	      5.21091978	    -14.21068786	      1.46063139	     -2.20857398	     17.61156091	      5.48628915	     -2.14218378	     -3.64465363
      0.69666667	     -2.02432691	      4.06055502	      6.07965288	     -0.71327988	      0.95724995	      0.31740906	     30.72175626	     -2.65102671	     -0.62257502	    -16.64541055	      8.82829084	    -11.44657857	      3.47954211	    -20.32336528	      5.42688918	      4.98124795	    -14.74254517	      0.67136808	     -2.16271427	     22.91554430	      5.67131044	     -1.91131153	     -3.63344694
      0.70083333	     -2.14908922	      3.86371360	      6.00861089	     -0.70670346	      0.95687772	      0.31797879	     30.90090947	     -2.36105120	     -0.54576226	    -17.38458973	      8.57134512	    -11.60863964	      3.47739640	    -20.14254382	      5.18883890	      4.74008448	    -15.35832496	     -0.04157140	     -2.11997471	     22.96462946	      5.91688428	     -1.68934323	     -3.59446863
      0.70500000	     -2.21913981	      3.65605155	      5.94537754	     -0.70010830	      0.95663584	      0.31852894	     31.01664268	     -2.07377859	     -0.55178199	    -18.12712606	      8.35766292	    -11.72869985	      3.47442626	    -20.01363865	      4.93240095	      4.54308318	    -15.97170633	     -0.83523674	     -2.07901829	     23.00760728	      6.09994004	     -1.44792677	     -3.58399225
      0.70916667	     -2.31993954	      3.45158969	      5.87211679	     -0.69355120	      0.95639919	      0.31912676	     31.15759403	     -1.78288446	     -0.52221839	    -18.85282119	      8.15017090	    -11.87472564	      3.46993682	    -19.80323358	      4.68169899	      4.30217131	    -16.66358394	     -1.63394452	     -2.02240783	     23.08704452	      6.31906422	     -1.21119108	     -3.55767285
      0.71333333	     -2.47725578	      3.24873519	      5.82039331	     -0.68709253	      0.95613289	      0.31977759	     31.35527990	     -1.49518258	     -0.45685332	    -19.57371545	      7.93696927	    -12.24959010	      3.44822536	    -19.45071301	      4.42336414	      4.03681593	    -17.50313419	     -2.31347225	     -1.87924314	     23.47582460	      6.58990539	     -1.00488227	     -3.48345554
      0.71750000	     -2.51364719	      3.01105902	      5.72627539	     -0.68060908	      0.95608088	      0.32049409	     31.38636867	     -1.14085122	     -0.35784005	    -20.21909095	      7.79108786	    -12.59067843	      3.23248700	    -19.22623317	      4.12001440	      3.70659263	    -18.30420178	     -3.21861031	     -1.81673220	     26.70336104	      6.71344011	     -0.74078243	     -3.50192013
      0.72166667	     -2.56298810	      2.80333546	      5.66818633	     -0.67414164	      0.95606796	      0.32107956	     31.45246479	     -0.87631364	     -0.45912192	    -20.91775237	      7.68969360	    -12.49576781	      3.22856572	    -18.97258056	      3.85996346	      3.52546683	    -19.13371809	     -4.10599020	     -1.85950185	     26.73254491	      6.85634468	     -0.49392563	     -3.48533376
      0.72583333	     -2.65991242	      2.61869576	      5.60617468	     -0.66779719	      0.95602162	      0.32172608	     31.56410751	     -0.62498442	     -0.49082843	    -21.59999201	      7.63500104	    -12.44892904	      3.21379584	    -18.59672467	      3.62400137	      3.31414857	    -20.08778860	     -4.96681244	     -1.87334951	     26.83486876	      7.03589832	     -0.30430053	     -3.46749774
      0.73000000	     -2.69360349	      2.40353579	      5.55249635	     -0.66145103	      0.95612821	      0.32237471	     31.58517093	     -0.34854437	     -0.58100008	    -22.24599613	      7.60413387	    -12.45979044	      3.20162556	    -18.26845070	      3.34517574	      3.12203726	    -21.04718613	     -5.91012601	     -1.89978640	     26.90422087	      7.13320634	     -0.06619969	     -3.46551801
      0.73416667	     -2.72043972	      2.20221106	      5.49692471	     -0.65519597	      0.95627629	      0.32301947	     31.58435271	     -0.08708094	     -0.66040091	    -22.85925236	      7.59543431	    -12.46012021	      3.18685780	    -17.89740077	      3.08100560	      2.92783873	    -22.08803321	     -6.83688675	     -1.93352356	     26.97922567	      7.22789991	      0.16885679	     -3.46600043
